<svg xmlns="http://www.w3.org/2000/svg" width="762.074" height="781.382" viewBox="93.397 107.986 762.074 781.382"><defs><clipPath id="a"><path fill="currentColor" d="M830 646q72 146-89.5 121t-273 76q-111.5 101-181-18t-145-222Q66 500 109 373.5T262 177q110-70 237.5-69T765 158q138 49 65.5 195.5T830 646Z"/></clipPath></defs><g clip-path="url(#a)"><path d="M830 646q72 146-89.5 121t-273 76q-111.5 101-181-18t-145-222Q66 500 109 373.5T262 177q110-70 237.5-69T765 158q138 49 65.5 195.5T830 646Z"/></g></svg>